<svg width="130" height="130" viewBox="0 0 130 130" fill="none" xmlns="http://www.w3.org/2000/svg">
<rect x="5" y="5" width="120" height="120" stroke="#EABF9F" stroke-width="10"/>
<path d="M34.665 48.32V57H28.995V48.25L19.51 32.5H25.53L32.075 43.385L38.62 32.5H44.185L34.665 48.32ZM67.1384 51.75H55.7634L53.5934 57H47.7834L58.7034 32.5H64.3034L75.2584 57H69.3084L67.1384 51.75ZM65.3534 47.445L61.4684 38.065L57.5834 47.445H65.3534ZM99.9635 44.365H105.144V54.305C103.814 55.3083 102.274 56.0783 100.524 56.615C98.7735 57.1517 97.0119 57.42 95.2385 57.42C92.6952 57.42 90.4085 56.8833 88.3785 55.81C86.3485 54.7133 84.7502 53.2083 83.5835 51.295C82.4402 49.3583 81.8685 47.1767 81.8685 44.75C81.8685 42.3233 82.4402 40.1533 83.5835 38.24C84.7502 36.3033 86.3602 34.7983 88.4135 33.725C90.4669 32.6283 92.7769 32.08 95.3435 32.08C97.4902 32.08 99.4385 32.4417 101.189 33.165C102.939 33.8883 104.409 34.9383 105.599 36.315L101.959 39.675C100.209 37.8317 98.0969 36.91 95.6235 36.91C94.0602 36.91 92.6719 37.2367 91.4585 37.89C90.2452 38.5433 89.3002 39.465 88.6235 40.655C87.9469 41.845 87.6085 43.21 87.6085 44.75C87.6085 46.2667 87.9469 47.62 88.6235 48.81C89.3002 50 90.2335 50.9333 91.4235 51.61C92.6369 52.2633 94.0135 52.59 95.5535 52.59C97.1869 52.59 98.6569 52.24 99.9635 51.54V44.365ZM45.375 75.5V100H40.72L28.505 85.125V100H22.905V75.5H27.595L39.775 90.375V75.5H45.375ZM64.8566 100.42C61.3566 100.42 58.6266 99.4517 56.6666 97.515C54.7299 95.5783 53.7616 92.8133 53.7616 89.22V75.5H59.4316V89.01C59.4316 93.3967 61.2516 95.59 64.8916 95.59C66.6649 95.59 68.0183 95.065 68.9516 94.015C69.8849 92.9417 70.3516 91.2733 70.3516 89.01V75.5H75.9516V89.22C75.9516 92.8133 74.9716 95.5783 73.0116 97.515C71.0749 99.4517 68.3566 100.42 64.8566 100.42ZM99.9646 100L95.2396 93.175H94.9596H90.0246V100H84.3546V75.5H94.9596C97.1296 75.5 99.0079 75.8617 100.595 76.585C102.205 77.3083 103.441 78.335 104.305 79.665C105.168 80.995 105.6 82.57 105.6 84.39C105.6 86.21 105.156 87.785 104.27 89.115C103.406 90.4217 102.17 91.425 100.56 92.125L106.055 100H99.9646ZM99.8596 84.39C99.8596 83.0133 99.4163 81.9633 98.5296 81.24C97.6429 80.4933 96.3479 80.12 94.6446 80.12H90.0246V88.66H94.6446C96.3479 88.66 97.6429 88.2867 98.5296 87.54C99.4163 86.7933 99.8596 85.7433 99.8596 84.39Z" fill="#EABF9F"/>
</svg>
