<?xml version="1.0" standalone="no"?><svg xmlns="http://www.w3.org/2000/svg" viewBox="0 0 1440 320"><path fill="#FAF3E0" fill-opacity="1" d="M0,128L34.3,133.3C68.6,139,137,149,206,133.3C274.3,117,343,75,411,48C480,21,549,11,617,21.3C685.7,32,754,64,823,90.7C891.4,117,960,139,1029,154.7C1097.1,171,1166,181,1234,208C1302.9,235,1371,277,1406,298.7L1440,320L1440,320L1405.7,320C1371.4,320,1303,320,1234,320C1165.7,320,1097,320,1029,320C960,320,891,320,823,320C754.3,320,686,320,617,320C548.6,320,480,320,411,320C342.9,320,274,320,206,320C137.1,320,69,320,34,320L0,320Z"></path></svg>